<?xml version="1.0" encoding="utf-8"?>
<!-- Generator: Adobe Illustrator 17.0.2, SVG Export Plug-In . SVG Version: 6.00 Build 0)  -->
<!DOCTYPE svg PUBLIC "-//W3C//DTD SVG 1.1//EN" "http://www.w3.org/Graphics/SVG/1.1/DTD/svg11.dtd">
<svg version="1.1" id="Calque_1" xmlns="http://www.w3.org/2000/svg" xmlns:xlink="http://www.w3.org/1999/xlink" x="0px" y="0px"
	 width="35px" height="35px" viewBox="0 0 35 35" style="enable-background:new 0 0 35 35;" xml:space="preserve">
<path d="M34.268,0.732c0.976,0.976,1.017,2.519,0.091,3.445L14.232,24.303c-0.926,0.926-2.469,0.886-3.445-0.091l0,0
	c-0.976-0.976-1.017-2.519-0.091-3.445L30.823,0.642C31.749-0.285,33.291-0.244,34.268,0.732L34.268,0.732z"/>
<path d="M2.706,26.631C0.521,28.816,0,35,0,35s6.184-0.521,8.369-2.706c1.609-1.609,2.289-4.043,0.334-5.997
	S4.266,25.071,2.706,26.631z"/>
</svg>
