<?xml version="1.0" encoding="utf-8"?>
<!-- Generator: Adobe Illustrator 17.0.2, SVG Export Plug-In . SVG Version: 6.00 Build 0)  -->
<!DOCTYPE svg PUBLIC "-//W3C//DTD SVG 1.1//EN" "http://www.w3.org/Graphics/SVG/1.1/DTD/svg11.dtd">
<svg version="1.1" xmlns="http://www.w3.org/2000/svg" xmlns:xlink="http://www.w3.org/1999/xlink" x="0px" y="0px" width="27px"
	 height="27px" viewBox="0 0 27 27" style="enable-background:new 0 0 27 27;" xml:space="preserve">
<style type="text/css">
	.st0{fill:#7D7D7E;}
</style>
<g id="_x35__1_">
	<g id="Ellipse_2_xA0_Image_9_">
	</g>
	<g id="mouth_copie_4_xA0_Image_1_">
	</g>
	<g id="eyes_copie_4_xA0_Image_1_">
	</g>
	<g id="eyebrows_copie_2_xA0_Image_1_">
	</g>
</g>
<g id="_x34__1_">
	<g id="Ellipse_2_xA0_Image_7_">
	</g>
	<g id="mouth_copie_3_xA0_Image_1_">
	</g>
	<g id="eyes_copie_3_xA0_Image_1_">
	</g>
	<g id="eyebrows_copie_xA0_Image_1_">
	</g>
</g>
<g id="_x33__1_">
	<g id="Ellipse_2_xA0_Image_5_">
	</g>
	<g id="mouth_copie_2_xA0_Image_1_">
	</g>
	<g id="eyes_copie_2_xA0_Image_1_">
	</g>
	<g id="eyebrows_xA0_Image_1_">
	</g>
</g>
<g id="_x32__1_">
	<g id="Ellipse_2_xA0_Image_3_">
	</g>
	<g id="eyes_copie_xA0_Image_1_">
	</g>
	<g id="mouth_copie_xA0_Image_1_">
	</g>
</g>
<g id="_x31__1_">
	<g id="Ellipse_2_xA0_Image_1_">
		<g>
			<path class="st0" d="M13.5-179c6.9,0,12.5,5.6,12.5,12.5S20.4-154,13.5-154S1-159.6,1-166.5S6.6-179,13.5-179 M13.5-180
				C6-180,0-174,0-166.5S6-153,13.5-153S27-159,27-166.5S21-180,13.5-180L13.5-180z"/>
		</g>
		<circle class="st0" cx="9" cy="-169" r="1"/>
		<circle class="st0" cx="18" cy="-169" r="1"/>
		<polygon class="st0" points="17,-159 10,-159 9,-161 18,-161 		"/>
		<g>
			<path class="st0" d="M13.5-119c6.9,0,12.5,5.6,12.5,12.5S20.4-94,13.5-94S1-99.6,1-106.5S6.6-119,13.5-119 M13.5-120
				C6-120,0-114,0-106.5S6-93,13.5-93S27-99,27-106.5S21-120,13.5-120L13.5-120z"/>
		</g>
		<circle class="st0" cx="9" cy="-109" r="1"/>
		<circle class="st0" cx="18" cy="-109" r="1"/>
		<polygon class="st0" points="15,-98 12,-98 9,-102 18,-102 		"/>
		<g>
			<path class="st0" d="M13.5-59C20.4-59,26-53.4,26-46.5S20.4-34,13.5-34S1-39.6,1-46.5S6.6-59,13.5-59 M13.5-60C6-60,0-54,0-46.5
				S6-33,13.5-33S27-39,27-46.5S21-60,13.5-60L13.5-60z"/>
		</g>
		<circle class="st0" cx="9" cy="-49" r="1"/>
		<circle class="st0" cx="18" cy="-49" r="1"/>
		<polygon class="st0" points="18,-41 9,-39 9,-41 18,-43 		"/>
		<g>
			<path class="st0" d="M13.5,1C20.4,1,26,6.6,26,13.5S20.4,26,13.5,26S1,20.4,1,13.5S6.6,1,13.5,1 M13.5,0C6,0,0,6,0,13.5
				S6,27,13.5,27S27,21,27,13.5S21,0,13.5,0L13.5,0z"/>
		</g>
		<circle class="st0" cx="9" cy="11" r="1"/>
		<circle class="st0" cx="18" cy="11" r="1"/>
		<polygon class="st0" points="17,18 10,18 9,20 18,20 		"/>
		<g>
			<path class="st0" d="M13.5,61C20.4,61,26,66.6,26,73.5S20.4,86,13.5,86S1,80.4,1,73.5S6.6,61,13.5,61 M13.5,60C6,60,0,66,0,73.5
				S6,87,13.5,87S27,81,27,73.5S21,60,13.5,60L13.5,60z"/>
		</g>
		<circle class="st0" cx="9" cy="71" r="1"/>
		<circle class="st0" cx="18" cy="71" r="1"/>
		<polygon class="st0" points="17,78 10,78 9,80 18,80 		"/>
		<polygon class="st0" points="20,8 16,5 16,6 20,9 		"/>
		<polygon class="st0" points="11,5 7,8 7,9 11,6 		"/>
		<path class="st0" d="M17-29"/>
		<path class="st0" d="M21-26"/>
		<polygon class="st0" points="11,-56 7,-53 7,-52 11,-55 		"/>
		<polygon class="st0" points="21,-52 17,-55 17,-54 21,-51 		"/>
		<polygon class="st0" points="20,67 16,70 16,69 20,66 		"/>
		<polygon class="st0" points="11,70 7,67 7,66 11,69 		"/>
	</g>
	<g id="eyes_xA0_Image_1_">
	</g>
	<g id="mouth_xA0_Image_1_">
	</g>
</g>
</svg>
