<?xml version="1.0" encoding="utf-8"?>
<!-- Generator: Adobe Illustrator 17.0.2, SVG Export Plug-In . SVG Version: 6.00 Build 0)  -->
<!DOCTYPE svg PUBLIC "-//W3C//DTD SVG 1.1//EN" "http://www.w3.org/Graphics/SVG/1.1/DTD/svg11.dtd">
<svg version="1.1" xmlns="http://www.w3.org/2000/svg" xmlns:xlink="http://www.w3.org/1999/xlink" x="0px" y="0px" width="27px"
	 height="27px" viewBox="0 0 27 27" style="enable-background:new 0 0 27 27;" xml:space="preserve">
<style type="text/css">
	.st0{fill:#7D7D7E;}
</style>
<g id="_x35__1_">
	<g id="Ellipse_2_xA0_Image_9_">
	</g>
	<g id="mouth_copie_4_xA0_Image_1_">
	</g>
	<g id="eyes_copie_4_xA0_Image_1_">
	</g>
	<g id="eyebrows_copie_2_xA0_Image_1_">
	</g>
</g>
<g id="_x34__1_">
	<g id="Ellipse_2_xA0_Image_7_">
	</g>
	<g id="mouth_copie_3_xA0_Image_1_">
	</g>
	<g id="eyes_copie_3_xA0_Image_1_">
	</g>
	<g id="eyebrows_copie_xA0_Image_1_">
	</g>
</g>
<g id="_x33__1_">
	<g id="Ellipse_2_xA0_Image_5_">
	</g>
	<g id="mouth_copie_2_xA0_Image_1_">
	</g>
	<g id="eyes_copie_2_xA0_Image_1_">
	</g>
	<g id="eyebrows_xA0_Image_1_">
	</g>
</g>
<g id="_x32__1_">
	<g id="Ellipse_2_xA0_Image_3_">
	</g>
	<g id="eyes_copie_xA0_Image_1_">
	</g>
	<g id="mouth_copie_xA0_Image_1_">
	</g>
</g>
<g id="_x31__1_">
	<g id="Ellipse_2_xA0_Image_1_">
		<g>
			<path class="st0" d="M13.5,1C20.4,1,26,6.6,26,13.5S20.4,26,13.5,26S1,20.4,1,13.5S6.6,1,13.5,1 M13.5,0C6,0,0,6,0,13.5
				S6,27,13.5,27S27,21,27,13.5S21,0,13.5,0L13.5,0z"/>
		</g>
		<circle class="st0" cx="9" cy="11" r="1"/>
		<circle class="st0" cx="18" cy="11" r="1"/>
		<polygon class="st0" points="17,21 10,21 9,19 18,19 		"/>
		<g>
			<path class="st0" d="M13.5,61C20.4,61,26,66.6,26,73.5S20.4,86,13.5,86S1,80.4,1,73.5S6.6,61,13.5,61 M13.5,60C6,60,0,66,0,73.5
				S6,87,13.5,87S27,81,27,73.5S21,60,13.5,60L13.5,60z"/>
		</g>
		<circle class="st0" cx="9" cy="71" r="1"/>
		<circle class="st0" cx="18" cy="71" r="1"/>
		<polygon class="st0" points="15,82 12,82 9,78 18,78 		"/>
		<g>
			<path class="st0" d="M13.5,121c6.9,0,12.5,5.6,12.5,12.5S20.4,146,13.5,146S1,140.4,1,133.5S6.6,121,13.5,121 M13.5,120
				C6,120,0,126,0,133.5S6,147,13.5,147S27,141,27,133.5S21,120,13.5,120L13.5,120z"/>
		</g>
		<circle class="st0" cx="9" cy="131" r="1"/>
		<circle class="st0" cx="18" cy="131" r="1"/>
		<polygon class="st0" points="18,139 9,141 9,139 18,137 		"/>
		<g>
			<path class="st0" d="M13.5,181c6.9,0,12.5,5.6,12.5,12.5S20.4,206,13.5,206S1,200.4,1,193.5S6.6,181,13.5,181 M13.5,180
				C6,180,0,186,0,193.5S6,207,13.5,207S27,201,27,193.5S21,180,13.5,180L13.5,180z"/>
		</g>
		<circle class="st0" cx="9" cy="191" r="1"/>
		<circle class="st0" cx="18" cy="191" r="1"/>
		<polygon class="st0" points="17,198 10,198 9,200 18,200 		"/>
		<g>
			<path class="st0" d="M13.5,241c6.9,0,12.5,5.6,12.5,12.5S20.4,266,13.5,266S1,260.4,1,253.5S6.6,241,13.5,241 M13.5,240
				C6,240,0,246,0,253.5S6,267,13.5,267S27,261,27,253.5S21,240,13.5,240L13.5,240z"/>
		</g>
		<circle class="st0" cx="9" cy="251" r="1"/>
		<circle class="st0" cx="18" cy="251" r="1"/>
		<polygon class="st0" points="17,258 10,258 9,260 18,260 		"/>
		<polygon class="st0" points="20,188 16,185 16,186 20,189 		"/>
		<polygon class="st0" points="11,185 7,188 7,189 11,186 		"/>
		<path class="st0" d="M17,151"/>
		<path class="st0" d="M21,154"/>
		<polygon class="st0" points="11,124 7,127 7,128 11,125 		"/>
		<polygon class="st0" points="21,128 17,125 17,126 21,129 		"/>
		<polygon class="st0" points="20,247 16,250 16,249 20,246 		"/>
		<polygon class="st0" points="11,250 7,247 7,246 11,249 		"/>
	</g>
	<g id="eyes_xA0_Image_1_">
	</g>
	<g id="mouth_xA0_Image_1_">
	</g>
</g>
</svg>
