<?xml version="1.0" encoding="utf-8"?>
<!-- Generator: Adobe Illustrator 17.0.2, SVG Export Plug-In . SVG Version: 6.00 Build 0)  -->
<!DOCTYPE svg PUBLIC "-//W3C//DTD SVG 1.1//EN" "http://www.w3.org/Graphics/SVG/1.1/DTD/svg11.dtd">
<svg version="1.1" xmlns="http://www.w3.org/2000/svg" xmlns:xlink="http://www.w3.org/1999/xlink" x="0px" y="0px" width="27px"
	 height="26.8px" viewBox="0 0 27 26.8" style="enable-background:new 0 0 27 26.8;" xml:space="preserve">
<style type="text/css">
	.st0{fill:#7D7D7E;}
</style>
<g id="_x35__1_">
	<g id="Ellipse_2_xA0_Image_9_">
	</g>
	<g id="mouth_copie_4_xA0_Image_1_">
	</g>
	<g id="eyes_copie_4_xA0_Image_1_">
	</g>
	<g id="eyebrows_copie_2_xA0_Image_1_">
	</g>
</g>
<g id="_x34__1_">
	<g id="Ellipse_2_xA0_Image_7_">
	</g>
	<g id="mouth_copie_3_xA0_Image_1_">
	</g>
	<g id="eyes_copie_3_xA0_Image_1_">
	</g>
	<g id="eyebrows_copie_xA0_Image_1_">
	</g>
</g>
<g id="_x33__1_">
	<g id="Ellipse_2_xA0_Image_5_">
	</g>
	<g id="mouth_copie_2_xA0_Image_1_">
	</g>
	<g id="eyes_copie_2_xA0_Image_1_">
	</g>
	<g id="eyebrows_xA0_Image_1_">
	</g>
</g>
<g id="_x32__1_">
	<g id="Ellipse_2_xA0_Image_3_">
	</g>
	<g id="eyes_copie_xA0_Image_1_">
	</g>
	<g id="mouth_copie_xA0_Image_1_">
	</g>
</g>
<g id="_x31__1_">
	<g id="Ellipse_2_xA0_Image_1_">
		<g>
			<path class="st0" d="M13.5-59.2c6.9,0,12.5,5.6,12.5,12.5s-5.6,12.5-12.5,12.5S1-39.8,1-46.7S6.6-59.2,13.5-59.2 M13.5-60.2
				C6-60.2,0-54.2,0-46.7s6,13.5,13.5,13.5S27-39.3,27-46.7S21-60.2,13.5-60.2L13.5-60.2z"/>
		</g>
		<circle class="st0" cx="9" cy="-49.2" r="1"/>
		<circle class="st0" cx="18" cy="-49.2" r="1"/>
		<polygon class="st0" points="17,-39.2 10,-39.2 9,-41.2 18,-41.2 		"/>
		<g>
			<path class="st0" d="M13.5,0.8C20.4,0.8,26,6.4,26,13.3s-5.6,12.5-12.5,12.5S1,20.2,1,13.3S6.6,0.8,13.5,0.8 M13.5-0.2
				C6-0.2,0,5.8,0,13.3s6,13.5,13.5,13.5S27,20.7,27,13.3S21-0.2,13.5-0.2L13.5-0.2z"/>
		</g>
		<circle class="st0" cx="9" cy="10.8" r="1"/>
		<circle class="st0" cx="18" cy="10.8" r="1"/>
		<polygon class="st0" points="15,21.8 12,21.8 9,17.8 18,17.8 		"/>
		<g>
			<path class="st0" d="M13.5,60.8c6.9,0,12.5,5.6,12.5,12.5c0,6.9-5.6,12.5-12.5,12.5S1,80.2,1,73.3C1,66.4,6.6,60.8,13.5,60.8
				 M13.5,59.8C6,59.8,0,65.8,0,73.3s6,13.5,13.5,13.5S27,80.7,27,73.3S21,59.8,13.5,59.8L13.5,59.8z"/>
		</g>
		<circle class="st0" cx="9" cy="70.8" r="1"/>
		<circle class="st0" cx="18" cy="70.8" r="1"/>
		<polygon class="st0" points="18,78.8 9,80.8 9,78.8 18,76.8 		"/>
		<g>
			<path class="st0" d="M13.5,120.8c6.9,0,12.5,5.6,12.5,12.5c0,6.9-5.6,12.5-12.5,12.5S1,140.2,1,133.3
				C1,126.4,6.6,120.8,13.5,120.8 M13.5,119.8c-7.5,0-13.5,6-13.5,13.5c0,7.5,6,13.5,13.5,13.5s13.5-6,13.5-13.5
				C27,125.8,21,119.8,13.5,119.8L13.5,119.8z"/>
		</g>
		<circle class="st0" cx="9" cy="130.8" r="1"/>
		<circle class="st0" cx="18" cy="130.8" r="1"/>
		<polygon class="st0" points="17,137.8 10,137.8 9,139.8 18,139.8 		"/>
		<g>
			<path class="st0" d="M13.5,180.8c6.9,0,12.5,5.6,12.5,12.5s-5.6,12.5-12.5,12.5S1,200.2,1,193.3S6.6,180.8,13.5,180.8
				 M13.5,179.8c-7.5,0-13.5,6-13.5,13.5s6,13.5,13.5,13.5s13.5-6,13.5-13.5S21,179.8,13.5,179.8L13.5,179.8z"/>
		</g>
		<circle class="st0" cx="9" cy="190.8" r="1"/>
		<circle class="st0" cx="18" cy="190.8" r="1"/>
		<polygon class="st0" points="17,197.8 10,197.8 9,199.8 18,199.8 		"/>
		<polygon class="st0" points="20,127.8 16,124.8 16,125.8 20,128.8 		"/>
		<polygon class="st0" points="11,124.8 7,127.8 7,128.8 11,125.8 		"/>
		<path class="st0" d="M17,90.8"/>
		<path class="st0" d="M21,93.8"/>
		<polygon class="st0" points="11,63.8 7,66.8 7,67.8 11,64.8 		"/>
		<polygon class="st0" points="21,67.8 17,64.8 17,65.8 21,68.8 		"/>
		<polygon class="st0" points="20,186.8 16,189.8 16,188.8 20,185.8 		"/>
		<polygon class="st0" points="11,189.8 7,186.8 7,185.8 11,188.8 		"/>
	</g>
	<g id="eyes_xA0_Image_1_">
	</g>
	<g id="mouth_xA0_Image_1_">
	</g>
</g>
</svg>
