<?xml version="1.0" encoding="utf-8"?>
<!-- Generator: Adobe Illustrator 17.0.2, SVG Export Plug-In . SVG Version: 6.00 Build 0)  -->
<!DOCTYPE svg PUBLIC "-//W3C//DTD SVG 1.1//EN" "http://www.w3.org/Graphics/SVG/1.1/DTD/svg11.dtd">
<svg version="1.1" xmlns="http://www.w3.org/2000/svg" xmlns:xlink="http://www.w3.org/1999/xlink" x="0px" y="0px" width="27px"
	 height="27px" viewBox="0 0 27 27" style="enable-background:new 0 0 27 27;" xml:space="preserve">
<style type="text/css">
	.st0{fill:#7D7D7E;}
</style>
<g id="_x35__1_">
	<g id="Ellipse_2_xA0_Image_9_">
	</g>
	<g id="mouth_copie_4_xA0_Image_1_">
	</g>
	<g id="eyes_copie_4_xA0_Image_1_">
	</g>
	<g id="eyebrows_copie_2_xA0_Image_1_">
	</g>
</g>
<g id="_x34__1_">
	<g id="Ellipse_2_xA0_Image_7_">
	</g>
	<g id="mouth_copie_3_xA0_Image_1_">
	</g>
	<g id="eyes_copie_3_xA0_Image_1_">
	</g>
	<g id="eyebrows_copie_xA0_Image_1_">
	</g>
</g>
<g id="_x33__1_">
	<g id="Ellipse_2_xA0_Image_5_">
	</g>
	<g id="mouth_copie_2_xA0_Image_1_">
	</g>
	<g id="eyes_copie_2_xA0_Image_1_">
	</g>
	<g id="eyebrows_xA0_Image_1_">
	</g>
</g>
<g id="_x32__1_">
	<g id="Ellipse_2_xA0_Image_3_">
	</g>
	<g id="eyes_copie_xA0_Image_1_">
	</g>
	<g id="mouth_copie_xA0_Image_1_">
	</g>
</g>
<g id="_x31__1_">
	<g id="Ellipse_2_xA0_Image_1_">
		<g>
			<path class="st0" d="M13.5-239c6.9,0,12.5,5.6,12.5,12.5S20.4-214,13.5-214S1-219.6,1-226.5S6.6-239,13.5-239 M13.5-240
				C6-240,0-234,0-226.5S6-213,13.5-213S27-219,27-226.5S21-240,13.5-240L13.5-240z"/>
		</g>
		<circle class="st0" cx="9" cy="-229" r="1"/>
		<circle class="st0" cx="18" cy="-229" r="1"/>
		<polygon class="st0" points="17,-219 10,-219 9,-221 18,-221 		"/>
		<g>
			<path class="st0" d="M13.5-179c6.9,0,12.5,5.6,12.5,12.5S20.4-154,13.5-154S1-159.6,1-166.5S6.6-179,13.5-179 M13.5-180
				C6-180,0-174,0-166.5S6-153,13.5-153S27-159,27-166.5S21-180,13.5-180L13.5-180z"/>
		</g>
		<circle class="st0" cx="9" cy="-169" r="1"/>
		<circle class="st0" cx="18" cy="-169" r="1"/>
		<polygon class="st0" points="15,-158 12,-158 9,-162 18,-162 		"/>
		<g>
			<path class="st0" d="M13.5-119c6.9,0,12.5,5.6,12.5,12.5S20.4-94,13.5-94S1-99.6,1-106.5S6.6-119,13.5-119 M13.5-120
				C6-120,0-114,0-106.5S6-93,13.5-93S27-99,27-106.5S21-120,13.5-120L13.5-120z"/>
		</g>
		<circle class="st0" cx="9" cy="-109" r="1"/>
		<circle class="st0" cx="18" cy="-109" r="1"/>
		<polygon class="st0" points="18,-101 9,-99 9,-101 18,-103 		"/>
		<g>
			<path class="st0" d="M13.5-59C20.4-59,26-53.4,26-46.5S20.4-34,13.5-34S1-39.6,1-46.5S6.6-59,13.5-59 M13.5-60C6-60,0-54,0-46.5
				S6-33,13.5-33S27-39,27-46.5S21-60,13.5-60L13.5-60z"/>
		</g>
		<circle class="st0" cx="9" cy="-49" r="1"/>
		<circle class="st0" cx="18" cy="-49" r="1"/>
		<polygon class="st0" points="17,-42 10,-42 9,-40 18,-40 		"/>
		<g>
			<path class="st0" d="M13.5,1C20.4,1,26,6.6,26,13.5S20.4,26,13.5,26S1,20.4,1,13.5S6.6,1,13.5,1 M13.5,0C6,0,0,6,0,13.5
				S6,27,13.5,27S27,21,27,13.5S21,0,13.5,0L13.5,0z"/>
		</g>
		<circle class="st0" cx="9" cy="11" r="1"/>
		<circle class="st0" cx="18" cy="11" r="1"/>
		<polygon class="st0" points="17,18 10,18 9,20 18,20 		"/>
		<polygon class="st0" points="20,-52 16,-55 16,-54 20,-51 		"/>
		<polygon class="st0" points="11,-55 7,-52 7,-51 11,-54 		"/>
		<path class="st0" d="M17-89"/>
		<path class="st0" d="M21-86"/>
		<polygon class="st0" points="11,-116 7,-113 7,-112 11,-115 		"/>
		<polygon class="st0" points="21,-112 17,-115 17,-114 21,-111 		"/>
		<polygon class="st0" points="20,7 16,10 16,9 20,6 		"/>
		<polygon class="st0" points="11,10 7,7 7,6 11,9 		"/>
	</g>
	<g id="eyes_xA0_Image_1_">
	</g>
	<g id="mouth_xA0_Image_1_">
	</g>
</g>
</svg>
