<?xml version="1.0" encoding="utf-8"?>
<!-- Generator: Adobe Illustrator 16.0.0, SVG Export Plug-In . SVG Version: 6.00 Build 0)  -->
<!DOCTYPE svg PUBLIC "-//W3C//DTD SVG 1.1//EN" "http://www.w3.org/Graphics/SVG/1.1/DTD/svg11.dtd">
<svg version="1.1" id="Calque_1" xmlns="http://www.w3.org/2000/svg" xmlns:xlink="http://www.w3.org/1999/xlink" x="0px" y="0px"
	 width="675.968px" height="222.507px" viewBox="0 0 675.968 222.507" style="enable-background:new 0 0 675.968 222.507;"
	 xml:space="preserve">
<style type="text/css">
<![CDATA[
	.st0{fill:#FEFFFF;}
	.st1{fill:#71C8F1;}
]]>
</style>
<path class="st1" d="M183.916,222.357l29.854-68.658l60.08,26.869l66.424,41.789"/>
<g>
	<path class="st0" d="M137.68,160.005c0,19.122-6.914,34.126-20.74,45.011s-32.9,16.327-57.219,16.327
		c-24.321,0-44.227-3.774-59.72-11.326v-33.243c9.805,4.61,20.225,8.237,31.258,10.885c11.031,2.647,21.303,3.972,30.816,3.972
		c13.923,0,24.197-2.647,30.815-7.943c6.62-5.295,9.929-12.404,9.929-21.328c0-8.04-3.041-14.856-9.12-20.446
		c-6.081-5.59-18.632-12.209-37.656-19.857c-19.614-7.943-33.44-17.013-41.48-27.213C6.521,84.645,2.5,72.387,2.5,58.068
		c0-17.945,6.374-32.066,19.122-42.362C34.37,5.409,51.483,0.261,72.958,0.261c20.593,0,41.087,4.512,61.485,13.533l-11.179,28.683
		c-19.123-8.04-36.185-12.062-51.189-12.062c-11.376,0-20.004,2.478-25.888,7.429c-5.884,4.953-8.826,11.498-8.826,19.637
		c0,5.59,1.177,10.37,3.53,14.341c2.354,3.973,6.226,7.723,11.62,11.254c5.393,3.529,15.101,8.188,29.125,13.974
		c15.787,6.57,27.359,12.7,34.714,18.387c7.354,5.688,12.747,12.111,16.18,19.269C135.963,141.864,137.68,150.297,137.68,160.005z"
		/>
	<path class="st0" d="M215.093,160.675l-21.646,61.455h-38.145L238.101-0.077h39.355l82.798,222.207h-38.447 M257.627,31.104
		c-2.725,12.412-31.938,98.389-31.938,98.389l94.482,60"/>
	<path class="st0" d="M389.468,222.13V0h36.177v222.13H389.468z"/>
	<path class="st0" d="M676.153,110.942c0,35.262-8.815,62.672-26.446,82.229c-17.632,19.558-42.596,29.336-74.896,29.336
		c-32.694,0-57.808-9.704-75.339-29.114c-17.534-19.408-26.299-46.989-26.299-82.747c0-35.755,8.816-63.214,26.446-82.377
		c17.632-19.161,42.793-28.743,75.488-28.743c32.199,0,57.091,9.729,74.673,29.188C667.361,48.173,676.153,75.582,676.153,110.942z
		 M510.807,110.942c0,26.669,5.383,46.892,16.149,60.672c10.765,13.778,26.718,20.668,47.855,20.668
		c21.039,0,36.915-6.815,47.635-20.446c10.715-13.631,16.074-33.929,16.074-60.894c0-26.569-5.311-46.72-15.928-60.45
		c-10.618-13.728-26.446-20.594-47.484-20.594c-21.237,0-37.263,6.866-48.078,20.594C516.214,64.223,510.807,84.373,510.807,110.942
		z"/>
</g>
</svg>
