<?xml version="1.0" encoding="utf-8"?>
<!-- Generator: Adobe Illustrator 17.0.2, SVG Export Plug-In . SVG Version: 6.00 Build 0)  -->
<!DOCTYPE svg PUBLIC "-//W3C//DTD SVG 1.1//EN" "http://www.w3.org/Graphics/SVG/1.1/DTD/svg11.dtd">
<svg version="1.1" id="Calque_1" xmlns="http://www.w3.org/2000/svg" xmlns:xlink="http://www.w3.org/1999/xlink" x="0px" y="0px"
	 width="675.968px" height="222.507px" viewBox="0 0 675.968 222.507" style="enable-background:new 0 0 675.968 222.507;"
	 xml:space="preserve">
<style type="text/css">
	.st0{fill:#75C9EF;}
	.st1{fill:#59595A;}
	.st2{opacity:0.3;fill:#75C9EF;}
</style>
<rect x="1717.025" y="-204.975" class="st0" width="106.494" height="57.673"/>
<path class="st0" d="M183.916,222.357l29.854-68.658l60.08,26.869l66.424,41.789"/>
<g>
	<path class="st0" d="M-2561.81-335.454h-23.047l56.836-148.633h20.996l55.469,148.633h-23.535 M-2521.673-446.877l-21.094,57.614
		h49.512l-19.922-57.614 M-2309.42-477.748"/>
	<path class="st1" d="M-2447.649-450.345h23.145l22.07,64.48l8.203,27.023l7.52-27.023l21.191-64.48h22.852l-42.773,114.453h-18.066
		L-2447.649-450.345z"/>
	<path class="st1" d="M-2321.966-450.345h21.484v112.891h-21.484V-450.345z"/>
	<path class="st1" d="M-2264.446-450.345h19.141l0.098,13.125c8.138-5.414,17.383-9.317,27.734-11.709
		c4.297-0.943,8.789-1.416,13.477-1.416s9.049,0.7,13.086,2.098c4.036,1.399,7.389,3.822,10.059,7.269
		c5.013,6.571,7.52,17.986,7.52,34.247v69.276h-21.484v-69.362c0-9.756-1.303-16.487-3.906-20.195
		c-2.604-3.772-7.292-5.658-14.062-5.658c-7.357,0-15.072,2.292-23.145,6.876c-2.475,1.382-4.818,2.983-7.031,4.802v83.537h-21.484
		V-450.345z"/>
	<path class="st1" d="M-2142.571-361.032c4.427,2.838,11.36,5.078,20.801,6.717c3.841,0.695,8.203,1.041,13.086,1.041
		s9.033-1.17,12.451-3.512c3.418-2.34,5.127-5.66,5.127-9.957c0-5.707-4.688-10.838-14.062-15.393
		c-2.734-1.347-6.006-2.822-9.814-4.426c-3.809-1.601-7.634-3.494-11.475-5.676c-12.436-7.247-18.652-16.932-18.652-29.053
		c0-9.363,4.004-16.675,12.012-21.935c7.161-4.746,16.568-7.12,28.223-7.12c8.854,0,16.959,1.367,24.316,4.102
		c1.758,0.651,3.06,1.206,3.906,1.66l-3.516,17.139c-3.125-2.997-8.594-5.131-16.406-6.406c-2.475-0.449-5.014-0.674-7.617-0.674
		c-6.901,0-12.143,1.074-15.723,3.223c-3.581,2.148-5.371,4.779-5.371,7.889c0,3.111,0.472,5.597,1.416,7.457
		c0.943,1.86,2.359,3.56,4.248,5.098c3.06,2.63,7.405,5.067,13.037,7.312c5.631,2.246,10.384,4.377,14.258,6.398
		c3.873,2.02,7.405,4.377,10.596,7.07c7.096,6.158,10.645,13.501,10.645,22.031c0,9.878-3.549,17.478-10.645,22.801
		c-6.836,5.26-16.374,7.889-28.613,7.889c-11.198,0-21.127-1.692-29.785-5.078c-2.475-0.911-4.362-1.855-5.664-2.832
		L-2142.571-361.032z"/>
	<path class="st1" d="M-2042.474-450.345h21.484v112.891h-21.484V-450.345z"/>
</g>
<g>
	<path class="st0" d="M-1735.81-335.454h-23.047l56.836-148.633h20.996l55.469,148.633h-23.535 M-1695.673-446.877l-21.094,57.614
		h49.512l-19.922-57.614 M-1483.42-477.748"/>
	<path class="st1" d="M-1621.649-450.345h23.145l22.07,64.48l8.203,27.023l7.52-27.023l21.191-64.48h22.852l-42.773,114.453h-18.066
		L-1621.649-450.345z"/>
	<path class="st1" d="M-1495.966-450.345h21.484v112.891h-21.484V-450.345z"/>
	<path class="st1" d="M-1438.446-450.345h19.141l0.098,13.125c8.138-5.414,17.383-9.317,27.734-11.709
		c4.297-0.943,8.789-1.416,13.477-1.416s9.049,0.7,13.086,2.098c4.036,1.399,7.389,3.822,10.059,7.269
		c5.013,6.571,7.52,17.986,7.52,34.247v69.276h-21.484v-69.362c0-9.756-1.303-16.487-3.906-20.195
		c-2.604-3.772-7.292-5.658-14.062-5.658c-7.357,0-15.072,2.292-23.145,6.876c-2.475,1.382-4.818,2.983-7.031,4.802v83.537h-21.484
		V-450.345z"/>
	<path class="st1" d="M-1316.571-361.032c4.427,2.838,11.36,5.078,20.801,6.717c3.841,0.695,8.203,1.041,13.086,1.041
		s9.033-1.17,12.451-3.512c3.418-2.34,5.127-5.66,5.127-9.957c0-5.707-4.688-10.838-14.062-15.393
		c-2.734-1.347-6.006-2.822-9.814-4.426c-3.809-1.601-7.634-3.494-11.475-5.676c-12.436-7.247-18.652-16.932-18.652-29.053
		c0-9.363,4.004-16.675,12.012-21.935c7.161-4.746,16.568-7.12,28.223-7.12c8.854,0,16.959,1.367,24.316,4.102
		c1.758,0.651,3.06,1.206,3.906,1.66l-3.516,17.139c-3.125-2.997-8.594-5.131-16.406-6.406c-2.475-0.449-5.014-0.674-7.617-0.674
		c-6.901,0-12.143,1.074-15.723,3.223c-3.581,2.148-5.371,4.779-5.371,7.889c0,3.111,0.472,5.597,1.416,7.457
		c0.943,1.86,2.359,3.56,4.248,5.098c3.06,2.63,7.405,5.067,13.037,7.312c5.631,2.246,10.384,4.377,14.258,6.398
		c3.873,2.02,7.405,4.377,10.596,7.07c7.096,6.158,10.645,13.501,10.645,22.031c0,9.878-3.549,17.478-10.645,22.801
		c-6.836,5.26-16.374,7.889-28.613,7.889c-11.198,0-21.127-1.692-29.785-5.078c-2.475-0.911-4.362-1.855-5.664-2.832
		L-1316.571-361.032z"/>
	<path class="st1" d="M-1216.474-450.345h21.484v112.891h-21.484V-450.345z"/>
</g>
<g>
	<path class="st1" d="M-2527.969-913.624h20.996l55.469,148.633h-23.535l-12.695-37.598h-60.742l-13.281,37.598h-23.047
		L-2527.969-913.624z M-2493.203-818.799l-19.922-57.614l-4.199-13.434l-4.297,13.434l-21.094,57.614H-2493.203z"/>
	<path class="st1" d="M-2447.598-877.881h23.145l22.07,64.481l8.203,27.023l7.52-27.023l21.191-64.481h22.852l-42.773,114.453
		h-18.066L-2447.598-877.881z"/>
	<path class="st1" d="M-2321.914-877.881h21.484v112.891h-21.484V-877.881z"/>
	<path class="st1" d="M-2264.395-877.881h19.141l0.098,13.125c8.138-5.414,17.383-9.317,27.734-11.709
		c4.297-0.943,8.789-1.416,13.477-1.416s9.049,0.7,13.086,2.098c4.036,1.399,7.389,3.822,10.059,7.269
		c5.013,6.571,7.52,17.986,7.52,34.247v69.276h-21.484v-69.362c0-9.756-1.303-16.487-3.906-20.195
		c-2.604-3.772-7.292-5.658-14.062-5.658c-7.357,0-15.072,2.292-23.145,6.875c-2.475,1.382-4.818,2.983-7.031,4.802v83.537h-21.484
		V-877.881z"/>
	<path class="st1" d="M-2142.52-788.569c4.427,2.838,11.36,5.078,20.801,6.717c3.841,0.695,8.203,1.041,13.086,1.041
		s9.033-1.17,12.451-3.512c3.418-2.34,5.127-5.66,5.127-9.957c0-5.707-4.688-10.838-14.062-15.393
		c-2.734-1.346-6.006-2.822-9.814-4.425c-3.809-1.602-7.634-3.494-11.475-5.676c-12.436-7.247-18.652-16.931-18.652-29.053
		c0-9.363,4.004-16.675,12.012-21.935c7.161-4.746,16.568-7.12,28.223-7.12c8.854,0,16.959,1.367,24.316,4.102
		c1.758,0.651,3.06,1.206,3.906,1.66l-3.516,17.139c-3.125-2.997-8.594-5.131-16.406-6.406c-2.475-0.449-5.014-0.674-7.617-0.674
		c-6.901,0-12.143,1.074-15.723,3.223c-3.581,2.148-5.371,4.779-5.371,7.889c0,3.111,0.472,5.597,1.416,7.457
		c0.943,1.86,2.359,3.56,4.248,5.098c3.06,2.63,7.405,5.067,13.037,7.312c5.631,2.246,10.384,4.378,14.258,6.398
		c3.873,2.02,7.405,4.377,10.596,7.071c7.096,6.159,10.645,13.501,10.645,22.031c0,9.878-3.549,17.479-10.645,22.801
		c-6.836,5.26-16.374,7.889-28.613,7.889c-11.198,0-21.127-1.692-29.785-5.078c-2.475-0.911-4.362-1.856-5.664-2.832
		L-2142.52-788.569z"/>
	<path class="st1" d="M-2042.422-877.881h21.484v112.891h-21.484V-877.881z"/>
</g>
<g>
	<path class="st1" d="M-3375.844-913.624h20.996l55.469,148.633h-23.535l-12.695-37.598h-60.742l-13.281,37.598h-23.047
		L-3375.844-913.624z M-3341.078-818.799L-3361-876.414l-4.199-13.434l-4.297,13.434l-21.094,57.614H-3341.078z"/>
	<path class="st1" d="M-3295.473-877.881h23.145l22.07,64.481l8.203,27.023l7.52-27.023l21.191-64.481h22.852l-42.773,114.453
		h-18.066L-3295.473-877.881z"/>
	<path class="st1" d="M-3148.744-902.051c-1.465,1.335-3.158,2.377-5.078,3.125c-1.921,0.749-3.842,1.123-5.762,1.123
		c-1.921,0-3.711-0.308-5.371-0.928c-1.66-0.618-3.142-1.514-4.443-2.685c-2.734-2.474-4.102-5.225-4.102-8.252
		c0-3.027,0.455-5.469,1.367-7.324c0.911-1.856,2.115-3.467,3.613-4.834c3.189-2.93,6.38-4.394,9.57-4.394
		c3.189,0,5.647,0.342,7.373,1.025c1.725,0.684,3.141,1.645,4.248,2.881c2.278,2.344,3.418,5.046,3.418,8.106
		c0,3.061-0.439,5.518-1.318,7.373C-3146.107-904.981-3147.279-903.385-3148.744-902.051z M-3169.789-877.881h21.484v112.891
		h-21.484V-877.881z"/>
	<path class="st1" d="M-3112.27-877.881h19.141l0.098,13.125c8.138-5.414,17.383-9.317,27.734-11.709
		c4.297-0.943,8.789-1.416,13.477-1.416s9.049,0.7,13.086,2.098c4.036,1.399,7.389,3.822,10.059,7.269
		c5.013,6.571,7.52,17.986,7.52,34.247v69.276h-21.484v-69.362c0-9.756-1.303-16.487-3.906-20.195
		c-2.604-3.772-7.292-5.658-14.062-5.658c-7.357,0-15.072,2.292-23.145,6.875c-2.475,1.382-4.818,2.983-7.031,4.802v83.537h-21.484
		V-877.881z"/>
	<path class="st1" d="M-2990.395-788.569c4.427,2.838,11.36,5.078,20.801,6.717c3.841,0.695,8.203,1.041,13.086,1.041
		s9.033-1.17,12.451-3.512c3.418-2.34,5.127-5.66,5.127-9.957c0-5.707-4.688-10.838-14.062-15.393
		c-2.734-1.346-6.006-2.822-9.814-4.425c-3.809-1.602-7.634-3.494-11.475-5.676c-12.436-7.247-18.652-16.931-18.652-29.053
		c0-9.363,4.004-16.675,12.012-21.935c7.161-4.746,16.568-7.12,28.223-7.12c8.854,0,16.959,1.367,24.316,4.102
		c1.758,0.651,3.06,1.206,3.906,1.66l-3.516,17.139c-3.125-2.997-8.594-5.131-16.406-6.406c-2.475-0.449-5.014-0.674-7.617-0.674
		c-6.901,0-12.143,1.074-15.723,3.223c-3.581,2.148-5.371,4.779-5.371,7.889c0,3.111,0.472,5.597,1.416,7.457
		c0.943,1.86,2.359,3.56,4.248,5.098c3.06,2.63,7.405,5.067,13.037,7.312c5.631,2.246,10.384,4.378,14.258,6.398
		c3.873,2.02,7.405,4.377,10.596,7.071c7.096,6.159,10.645,13.501,10.645,22.031c0,9.878-3.549,17.479-10.645,22.801
		c-6.836,5.26-16.374,7.889-28.613,7.889c-11.198,0-21.127-1.692-29.785-5.078c-2.475-0.911-4.362-1.856-5.664-2.832
		L-2990.395-788.569z"/>
	<path class="st1" d="M-2869.252-902.051c-1.465,1.335-3.158,2.377-5.078,3.125c-1.921,0.749-3.842,1.123-5.762,1.123
		c-1.921,0-3.711-0.308-5.371-0.928c-1.66-0.618-3.142-1.514-4.443-2.685c-2.734-2.474-4.102-5.225-4.102-8.252
		c0-3.027,0.455-5.469,1.367-7.324c0.911-1.856,2.115-3.467,3.613-4.834c3.189-2.93,6.38-4.394,9.57-4.394
		c3.189,0,5.647,0.342,7.373,1.025c1.725,0.684,3.141,1.645,4.248,2.881c2.278,2.344,3.418,5.046,3.418,8.106
		c0,3.061-0.439,5.518-1.318,7.373C-2866.615-904.981-2867.787-903.385-2869.252-902.051z M-2890.297-877.881h21.484v112.891
		h-21.484V-877.881z"/>
</g>
<g>
	<path class="st0" d="M-15.168,749.86l29.854-68.658l60.08,26.869l66.424,41.789"/>
	<path class="st1" d="M165.958,581.838l26.581,0.161l50.155,134.031l50.282-134.031l26.58-0.161l-63.744,168.447h-26.968
		L165.958,581.838z"/>
	<path class="st1" d="M360.562,581.999h32.069v168.508h-32.069V581.999z"/>
	<path class="st1" d="M446.42,581.999h28.571l0.146,19.593c12.146-8.08,25.947-13.909,41.399-17.479
		c6.414-1.406,13.119-2.113,20.116-2.113c6.997,0,13.507,1.046,19.532,3.132c6.025,2.089,11.029,5.705,15.015,10.85
		c7.482,9.81,11.224,26.847,11.224,51.121v103.405h-32.068V646.974c0-14.563-1.944-24.61-5.831-30.145
		c-3.888-5.629-10.885-8.445-20.99-8.445c-10.982,0-22.499,3.423-34.548,10.263c-3.694,2.063-7.191,4.453-10.495,7.168v124.693
		H446.42V581.999z"/>
	<path class="st1" d="M628.34,715.167c6.607,4.235,16.957,7.579,31.049,10.025c5.732,1.039,12.244,1.555,19.532,1.555
		c7.289,0,13.483-1.747,18.586-5.242c5.102-3.492,7.652-8.449,7.652-14.862c0-8.52-6.996-16.178-20.99-22.976
		c-4.082-2.009-8.965-4.213-14.65-6.607c-5.685-2.392-11.395-5.216-17.128-8.473c-18.561-10.815-27.841-25.272-27.841-43.365
		c0-13.977,5.977-24.892,17.929-32.742c10.69-7.083,24.732-10.627,42.128-10.627c13.215,0,25.313,2.04,36.296,6.122
		c2.624,0.973,4.567,1.8,5.831,2.478l-5.247,25.582c-4.666-4.472-12.828-7.658-24.49-9.56c-3.693-0.669-7.483-1.008-11.37-1.008
		c-10.301,0-18.124,1.604-23.468,4.812c-5.346,3.206-8.018,7.133-8.018,11.775c0,4.643,0.703,8.354,2.113,11.13
		c1.408,2.778,3.522,5.315,6.341,7.611c4.567,3.925,11.054,7.563,19.461,10.913c8.404,3.352,15.499,6.535,21.281,9.551
		c5.782,3.015,11.054,6.533,15.815,10.553c10.593,9.194,15.891,20.155,15.891,32.887c0,14.745-5.298,26.09-15.891,34.033
		c-10.203,7.853-24.44,11.775-42.71,11.775c-16.714,0-31.535-2.525-44.459-7.58c-3.694-1.357-6.512-2.768-8.454-4.227
		L628.34,715.167z"/>
	<path class="st1" d="M777.753,581.999h32.068v168.508h-32.068V581.999z"/>
</g>
<g>
	<path class="st0" d="M-3409.877,104.067h-23.047l56.836-148.633h20.996l55.469,148.633h-23.535 M-3390.834,50.259h49.512
		l-19.922-57.614l-4.199-13.434"/>
	<path class="st1" d="M-3295.717-8.823h23.145l22.07,64.48l8.203,27.023l7.52-27.023l21.191-64.48h22.852l-42.773,114.453h-18.066
		L-3295.717-8.823z"/>
	<path class="st1" d="M-3170.033-8.823h21.484v112.891h-21.484V-8.823z"/>
	<path class="st1" d="M-3112.514-8.823h19.141l0.098,13.125c8.138-5.413,17.383-9.316,27.734-11.709
		c4.297-0.943,8.789-1.416,13.477-1.416s9.049,0.7,13.086,2.098c4.036,1.399,7.389,3.822,10.059,7.269
		c5.013,6.57,7.52,17.986,7.52,34.247v69.276h-21.484V34.706c0-9.757-1.303-16.488-3.906-20.195
		c-2.604-3.773-7.292-5.658-14.062-5.658c-7.357,0-15.072,2.292-23.145,6.875c-2.475,1.383-4.818,2.984-7.031,4.803v83.537h-21.484
		V-8.823z"/>
	<path class="st1" d="M-2990.639,80.489c4.427,2.838,11.36,5.078,20.801,6.717c3.841,0.695,8.203,1.041,13.086,1.041
		s9.033-1.17,12.451-3.512c3.418-2.34,5.127-5.66,5.127-9.957c0-5.707-4.688-10.838-14.062-15.393
		c-2.734-1.347-6.006-2.822-9.814-4.426c-3.809-1.602-7.634-3.494-11.475-5.676c-12.436-7.247-18.652-16.932-18.652-29.053
		c0-9.363,4.004-16.676,12.012-21.935c7.161-4.745,16.568-7.119,28.223-7.119c8.854,0,16.959,1.367,24.316,4.102
		c1.758,0.651,3.06,1.205,3.906,1.66l-3.516,17.139c-3.125-2.997-8.594-5.131-16.406-6.406c-2.475-0.448-5.014-0.674-7.617-0.674
		c-6.901,0-12.143,1.074-15.723,3.223c-3.581,2.148-5.371,4.779-5.371,7.889c0,3.111,0.472,5.598,1.416,7.457
		c0.943,1.86,2.359,3.561,4.248,5.098c3.06,2.631,7.405,5.068,13.037,7.313c5.631,2.246,10.384,4.377,14.258,6.398
		c3.873,2.02,7.405,4.377,10.596,7.07c7.096,6.158,10.645,13.501,10.645,22.031c0,9.878-3.549,17.479-10.645,22.801
		c-6.836,5.26-16.374,7.889-28.613,7.889c-11.198,0-21.127-1.692-29.785-5.078c-2.475-0.911-4.362-1.855-5.664-2.832
		L-2990.639,80.489z"/>
	<path class="st1" d="M-2890.541-8.823h21.484v112.891h-21.484V-8.823z"/>
</g>
<circle class="st0" cx="-2311.424" cy="-473.243" r="10.75"/>
<circle class="st0" cx="-2032.424" cy="-473.243" r="10.75"/>
<circle class="st1" cx="-1484.833" cy="-473.243" r="10.75"/>
<circle class="st1" cx="-1205.833" cy="-473.243" r="10.75"/>
<g>
	<path class="st1" d="M-1731.617-765.934h-23.047l56.836-148.633h20.996l55.469,148.633h-23.535 M-1691.48-877.357l-21.094,57.614
		h49.512l-19.922-57.614 M-1479.228-908.228"/>
	<path class="st1" d="M-1617.457-880.825h23.145l22.07,64.48l8.203,27.023l7.52-27.023l21.191-64.48h22.852l-42.773,114.453h-18.066
		L-1617.457-880.825z"/>
	<path class="st1" d="M-1491.773-880.825h21.484v112.891h-21.484V-880.825z"/>
	<path class="st1" d="M-1434.254-880.825h19.141l0.098,13.125c8.138-5.414,17.383-9.317,27.734-11.709
		c4.297-0.943,8.789-1.416,13.477-1.416s9.049,0.7,13.086,2.098c4.036,1.399,7.389,3.822,10.059,7.269
		c5.013,6.571,7.52,17.986,7.52,34.247v69.276h-21.484v-69.362c0-9.756-1.303-16.487-3.906-20.195
		c-2.604-3.772-7.292-5.658-14.062-5.658c-7.357,0-15.072,2.292-23.145,6.875c-2.475,1.382-4.818,2.983-7.031,4.802v83.537h-21.484
		V-880.825z"/>
	<path class="st1" d="M-1312.379-791.512c4.427,2.838,11.36,5.078,20.801,6.717c3.841,0.695,8.203,1.041,13.086,1.041
		s9.033-1.17,12.451-3.512c3.418-2.34,5.127-5.66,5.127-9.957c0-5.707-4.688-10.838-14.062-15.393
		c-2.734-1.346-6.006-2.822-9.814-4.425c-3.809-1.602-7.634-3.494-11.475-5.676c-12.436-7.247-18.652-16.931-18.652-29.053
		c0-9.363,4.004-16.675,12.012-21.935c7.161-4.746,16.568-7.12,28.223-7.12c8.854,0,16.959,1.367,24.316,4.102
		c1.758,0.651,3.06,1.206,3.906,1.66l-3.516,17.139c-3.125-2.997-8.594-5.131-16.406-6.406c-2.475-0.449-5.014-0.674-7.617-0.674
		c-6.901,0-12.143,1.074-15.723,3.223c-3.581,2.148-5.371,4.779-5.371,7.889c0,3.111,0.472,5.597,1.416,7.457
		c0.943,1.86,2.359,3.56,4.248,5.098c3.06,2.63,7.405,5.067,13.037,7.312c5.631,2.246,10.384,4.377,14.258,6.398
		c3.873,2.02,7.405,4.378,10.596,7.071c7.096,6.159,10.645,13.501,10.645,22.031c0,9.878-3.549,17.479-10.645,22.801
		c-6.836,5.26-16.374,7.889-28.613,7.889c-11.198,0-21.127-1.692-29.785-5.078c-2.475-0.911-4.362-1.855-5.664-2.832
		L-1312.379-791.512z"/>
	<path class="st1" d="M-1212.281-880.825h21.484v112.891h-21.484V-880.825z"/>
</g>
<circle class="st0" cx="-1480.641" cy="-903.723" r="10.75"/>
<circle class="st0" cx="-1201.641" cy="-903.723" r="10.75"/>
<circle class="st0" cx="-2310.906" cy="-903.723" r="10.75"/>
<circle class="st0" cx="-2031.906" cy="-903.723" r="10.75"/>
<g>
	<path class="st1" d="M52.991,528h31.34l82.796,221.86h-35.13L22.379,693.739L2.555,749.86h-34.401L52.991,528z M127.274,717.307
		L68.879,563.489l-37.9,106.052L127.274,717.307z"/>
</g>
<polyline class="st1" points="-3170.033,-23.604 -3170.033,-44.845 -3148.793,-44.845 "/>
<polyline class="st1" points="-2891.033,-44.845 -2869.793,-44.845 -2869.793,-23.604 "/>
<g>
	<path class="st0" d="M-1732.97,104.067h-23.047l56.836-148.633h20.996l55.469,148.633h-23.535 M-1713.927,50.259h49.512
		l-19.922-57.614l-4.199-13.434"/>
	<path class="st1" d="M-1618.81-8.823h23.145l22.07,64.48l8.203,27.023l7.52-27.023l21.191-64.48h22.852l-42.773,114.453h-18.066
		L-1618.81-8.823z"/>
	<path class="st1" d="M-1493.126-8.823h21.484v112.891h-21.484V-8.823z"/>
	<path class="st1" d="M-1435.606-8.823h19.141l0.098,13.125c8.138-5.413,17.383-9.316,27.734-11.709
		c4.297-0.943,8.789-1.416,13.477-1.416s9.049,0.7,13.086,2.098c4.036,1.399,7.389,3.822,10.059,7.269
		c5.013,6.57,7.52,17.986,7.52,34.247v69.276h-21.484V34.706c0-9.757-1.303-16.488-3.906-20.195
		c-2.604-3.773-7.292-5.658-14.062-5.658c-7.357,0-15.072,2.292-23.145,6.875c-2.475,1.383-4.818,2.984-7.031,4.803v83.537h-21.484
		V-8.823z"/>
	<path class="st1" d="M-1313.731,80.489c4.427,2.838,11.36,5.078,20.801,6.717c3.841,0.695,8.203,1.041,13.086,1.041
		s9.033-1.17,12.451-3.512c3.418-2.34,5.127-5.66,5.127-9.957c0-5.707-4.688-10.838-14.062-15.393
		c-2.734-1.347-6.006-2.822-9.814-4.426c-3.809-1.602-7.634-3.494-11.475-5.676c-12.436-7.247-18.652-16.932-18.652-29.053
		c0-9.363,4.004-16.676,12.012-21.935c7.161-4.745,16.568-7.119,28.223-7.119c8.854,0,16.959,1.367,24.316,4.102
		c1.758,0.651,3.06,1.205,3.906,1.66l-3.516,17.139c-3.125-2.997-8.594-5.131-16.406-6.406c-2.475-0.448-5.014-0.674-7.617-0.674
		c-6.901,0-12.143,1.074-15.723,3.223c-3.581,2.148-5.371,4.779-5.371,7.889c0,3.111,0.472,5.598,1.416,7.457
		c0.943,1.86,2.359,3.561,4.248,5.098c3.06,2.631,7.405,5.068,13.037,7.313c5.631,2.246,10.384,4.377,14.258,6.398
		c3.873,2.02,7.405,4.377,10.596,7.07c7.096,6.158,10.645,13.501,10.645,22.031c0,9.878-3.549,17.479-10.645,22.801
		c-6.836,5.26-16.374,7.889-28.613,7.889c-11.198,0-21.127-1.692-29.785-5.078c-2.475-0.911-4.362-1.855-5.664-2.832
		L-1313.731,80.489z"/>
	<path class="st1" d="M-1213.634-8.823h21.484v112.891h-21.484V-8.823z"/>
</g>
<polyline class="st0" points="-1493.126,-23.604 -1493.126,-44.845 -1471.886,-44.845 "/>
<polyline class="st0" points="-1192.886,-44.845 -1192.886,-23.604 -1214.126,-23.604 "/>
<polyline class="st0" points="-1493.126,346.396 -1493.126,325.155 -1471.886,325.155 "/>
<polyline class="st0" points="-1192.886,325.155 -1192.886,346.396 -1214.126,346.396 "/>
<g>
	<path class="st0" d="M-3409.877-335.096h-23.047l56.836-148.633h20.996l55.469,148.633h-23.535 M-3390.834-388.904h49.512
		l-19.922-57.614l-4.199-13.434"/>
	<path class="st1" d="M-3295.717-447.986h23.145l22.07,64.48l8.203,27.023l7.52-27.023l21.191-64.48h22.852l-42.773,114.453h-18.066
		L-3295.717-447.986z"/>
	<path class="st1" d="M-3170.033-447.986h21.484v112.891h-21.484V-447.986z"/>
	<path class="st1" d="M-3112.514-447.986h19.141l0.098,13.125c8.138-5.413,17.383-9.316,27.734-11.709
		c4.297-0.943,8.789-1.416,13.477-1.416s9.049,0.7,13.086,2.098c4.036,1.399,7.389,3.822,10.059,7.27
		c5.013,6.57,7.52,17.986,7.52,34.247v69.276h-21.484v-69.361c0-9.757-1.303-16.488-3.906-20.195
		c-2.604-3.772-7.292-5.658-14.062-5.658c-7.357,0-15.072,2.292-23.145,6.875c-2.475,1.383-4.818,2.984-7.031,4.803v83.537h-21.484
		V-447.986z"/>
	<path class="st1" d="M-2990.639-358.674c4.427,2.838,11.36,5.078,20.801,6.717c3.841,0.695,8.203,1.041,13.086,1.041
		s9.033-1.17,12.451-3.512c3.418-2.34,5.127-5.66,5.127-9.957c0-5.707-4.688-10.838-14.062-15.393
		c-2.734-1.347-6.006-2.822-9.814-4.426c-3.809-1.602-7.634-3.494-11.475-5.676c-12.436-7.247-18.652-16.932-18.652-29.053
		c0-9.363,4.004-16.676,12.012-21.935c7.161-4.745,16.568-7.119,28.223-7.119c8.854,0,16.959,1.367,24.316,4.102
		c1.758,0.651,3.06,1.205,3.906,1.66l-3.516,17.139c-3.125-2.997-8.594-5.131-16.406-6.406c-2.475-0.448-5.014-0.674-7.617-0.674
		c-6.901,0-12.143,1.074-15.723,3.223c-3.581,2.148-5.371,4.779-5.371,7.889c0,3.111,0.472,5.598,1.416,7.457
		c0.943,1.86,2.359,3.561,4.248,5.098c3.06,2.631,7.405,5.068,13.037,7.312c5.631,2.246,10.384,4.377,14.258,6.398
		c3.873,2.02,7.405,4.377,10.596,7.07c7.096,6.158,10.645,13.501,10.645,22.031c0,9.878-3.549,17.478-10.645,22.801
		c-6.836,5.26-16.374,7.889-28.613,7.889c-11.198,0-21.127-1.692-29.785-5.078c-2.475-0.911-4.362-1.855-5.664-2.832
		L-2990.639-358.674z"/>
	<path class="st1" d="M-2890.541-447.986h21.484v112.891h-21.484V-447.986z"/>
</g>
<polyline class="st0" points="-3174.432,-468.388 -3159.413,-483.407 -3144.394,-468.388 "/>
<polyline class="st0" points="-2895.432,-469.388 -2880.413,-484.407 -2865.394,-469.388 "/>
<rect x="360.432" y="527.512" class="st0" width="31.993" height="31.995"/>
<rect x="778.116" y="527.511" class="st0" width="31.705" height="31.706"/>
<g>
	<path class="st0" d="M-889.105,36.871h-60.742 M-975.002,104.253l20-45.996l40.25,18l44.5,27.996"/>
	<path class="st0" d="M-746.438,36.871h-60.742 M-802.837,90.175l-31-99.42h80.333l-41,104.753"/>
	<path class="st0" d="M-586.687,36.871h-60.742 M-651.504,103.646l0.667-86.471l57.333-19l11.334,105.471"/>
	<path class="st0" d="M-462.646,29.937h-60.742 M-547.113,95.833l19.608-92.992l49.192-4.666l-12.525,60.666l3.666,32.333"/>
	<path class="st1" d="M-848.968-9.245h23.145l22.07,64.48l8.203,27.023l7.519-27.023l21.191-64.48h22.852l-42.773,114.453h-18.066
		L-848.968-9.245z"/>
	<path class="st1" d="M-723.285-9.245h21.484v112.891h-21.484V-9.245z"/>
	<path class="st1" d="M-665.765-9.245h19.141l0.098,13.126c8.138-5.413,17.383-9.317,27.734-11.71
		c4.297-0.942,8.789-1.416,13.477-1.416s9.049,0.701,13.086,2.099c4.036,1.399,7.389,3.822,10.059,7.269
		c5.013,6.571,7.519,17.986,7.519,34.248v69.275h-21.484V34.284c0-9.756-1.303-16.487-3.906-20.195
		c-2.604-3.772-7.292-5.658-14.062-5.658c-7.357,0-15.072,2.293-23.145,6.876c-2.475,1.382-4.818,2.983-7.031,4.802v83.537h-21.484
		V-9.245z"/>
	<path class="st1" d="M-543.89,80.067c4.427,2.838,11.36,5.078,20.801,6.717c3.841,0.695,8.203,1.041,13.086,1.041
		c4.883,0,9.033-1.17,12.451-3.512c3.418-2.34,5.127-5.66,5.127-9.957c0-5.707-4.688-10.838-14.062-15.393
		c-2.734-1.346-6.006-2.822-9.814-4.426c-3.809-1.602-7.634-3.494-11.475-5.676c-12.435-7.246-18.652-16.932-18.652-29.053
		c0-9.363,4.004-16.675,12.012-21.934c7.161-4.745,16.568-7.12,28.223-7.12c8.853,0,16.959,1.367,24.316,4.102
		c1.758,0.652,3.06,1.206,3.906,1.66l-3.516,17.139c-3.125-2.996-8.594-5.131-16.406-6.405c-2.475-0.448-5.014-0.675-7.617-0.675
		c-6.901,0-12.143,1.074-15.723,3.223c-3.581,2.148-5.371,4.779-5.371,7.889c0,3.111,0.472,5.598,1.416,7.457
		c0.943,1.861,2.359,3.561,4.248,5.099c3.06,2.63,7.405,5.067,13.037,7.311c5.631,2.246,10.384,4.378,14.258,6.398
		c3.873,2.02,7.405,4.377,10.596,7.07c7.096,6.159,10.645,13.502,10.645,22.031c0,9.879-3.549,17.479-10.645,22.801
		c-6.836,5.26-16.374,7.889-28.613,7.889c-11.198,0-21.127-1.691-29.785-5.078c-2.475-0.91-4.362-1.855-5.664-2.832L-543.89,80.067z
		"/>
	<path class="st1" d="M-443.793-9.245h21.484v112.891h-21.484V-9.245z"/>
</g>
<g>
	<path class="st1" d="M-929.339-44.38h20.996l55.469,148.633h-23.535l-73.438-37.598l-13.281,37.598h-23.047L-929.339-44.38z
		 M-879.574,82.444l-39.121-103.049l-25.391,71.049L-879.574,82.444z"/>
</g>
<rect x="-722.771" y="-44.707" class="st0" width="21.24" height="21.241"/>
<rect x="-443.771" y="-44.708" class="st0" width="21.24" height="21.241"/>
<g>
	<path class="st0" d="M-883.637-402.415h-60.742 M-950.065-385.199l32.907-84.794l14.625,5l37.75,118.5"/>
	<path class="st1" d="M-843.5-448.531h23.144l22.07,64.48l8.203,27.023l7.52-27.023l21.191-64.48h22.852l-42.773,114.453h-18.066
		L-843.5-448.531z"/>
	<path class="st1" d="M-717.817-448.531h21.484v112.891h-21.484V-448.531z"/>
	<path class="st1" d="M-660.297-448.531h19.141l0.098,13.126c8.138-5.413,17.383-9.317,27.734-11.71
		c4.297-0.942,8.789-1.416,13.477-1.416s9.049,0.701,13.086,2.099c4.036,1.4,7.389,3.822,10.059,7.269
		c5.013,6.571,7.52,17.986,7.52,34.248v69.275h-21.484v-69.361c0-9.756-1.303-16.487-3.906-20.195
		c-2.604-3.772-7.292-5.658-14.062-5.658c-7.357,0-15.072,2.293-23.144,6.876c-2.475,1.382-4.818,2.983-7.031,4.802v83.537h-21.484
		V-448.531z"/>
	<path class="st1" d="M-538.422-359.219c4.427,2.838,11.36,5.078,20.801,6.717c3.841,0.695,8.203,1.041,13.086,1.041
		c4.883,0,9.033-1.17,12.451-3.512c3.418-2.34,5.127-5.66,5.127-9.957c0-5.707-4.688-10.838-14.062-15.393
		c-2.734-1.346-6.006-2.822-9.815-4.426c-3.809-1.602-7.634-3.494-11.475-5.676c-12.436-7.246-18.652-16.932-18.652-29.053
		c0-9.363,4.004-16.675,12.012-21.935c7.161-4.745,16.568-7.12,28.223-7.12c8.854,0,16.959,1.367,24.316,4.102
		c1.758,0.652,3.06,1.206,3.906,1.66l-3.516,17.139c-3.125-2.996-8.594-5.131-16.406-6.405c-2.475-0.448-5.014-0.675-7.617-0.675
		c-6.901,0-12.142,1.074-15.723,3.223c-3.581,2.148-5.371,4.779-5.371,7.889c0,3.111,0.472,5.598,1.416,7.457
		c0.943,1.861,2.359,3.561,4.248,5.099c3.06,2.63,7.405,5.067,13.037,7.311c5.631,2.246,10.384,4.378,14.258,6.398
		c3.873,2.02,7.405,4.377,10.596,7.07c7.096,6.159,10.645,13.502,10.645,22.031c0,9.879-3.549,17.479-10.645,22.801
		c-6.836,5.26-16.374,7.889-28.613,7.889c-11.198,0-21.127-1.691-29.785-5.078c-2.475-0.91-4.362-1.855-5.664-2.832
		L-538.422-359.219z"/>
	<path class="st1" d="M-438.325-448.531h21.484v112.891h-21.484V-448.531z"/>
</g>
<g>
	<path class="st1" d="M-923.872-483.666h20.996l55.469,148.633h-23.535l-73.438-37.598l-13.281,37.598h-23.047L-923.872-483.666z
		 M-874.106-356.842l-39.121-103.049l-25.391,71.049L-874.106-356.842z"/>
</g>
<rect x="-717.303" y="-483.993" class="st0" width="21.24" height="21.241"/>
<rect x="-438.303" y="-483.994" class="st0" width="21.24" height="21.241"/>
<g>
	<path class="st0" d="M-903.046,450.831h-60.742 M-969.152,471.467l9.709-47.96l59.5,18.5l30.5,29.46"/>
	<path class="st1" d="M-851.41,357.969h23.145l22.07,64.48l8.203,27.023l7.519-27.023l21.191-64.48h22.852l-42.773,114.453h-18.066
		L-851.41,357.969z"/>
	<path class="st1" d="M-725.726,357.969h21.484v112.891h-21.484V357.969z"/>
	<path class="st1" d="M-668.206,357.969h19.141l0.098,13.126c8.138-5.413,17.383-9.317,27.734-11.71
		c4.297-0.942,8.789-1.416,13.477-1.416s9.049,0.701,13.086,2.099c4.036,1.4,7.389,3.822,10.059,7.269
		c5.013,6.571,7.519,17.986,7.519,34.248v69.275h-21.484v-69.361c0-9.756-1.303-16.487-3.906-20.195
		c-2.604-3.772-7.292-5.658-14.062-5.658c-7.357,0-15.072,2.293-23.145,6.876c-2.475,1.382-4.818,2.983-7.031,4.802v83.537h-21.484
		V357.969z"/>
	<path class="st1" d="M-546.331,447.281c4.427,2.838,11.36,5.078,20.801,6.717c3.841,0.695,8.203,1.041,13.086,1.041
		c4.883,0,9.033-1.17,12.451-3.512c3.418-2.34,5.127-5.66,5.127-9.957c0-5.707-4.688-10.838-14.062-15.393
		c-2.734-1.346-6.006-2.822-9.815-4.426c-3.808-1.602-7.634-3.494-11.475-5.676c-12.435-7.246-18.652-16.932-18.652-29.053
		c0-9.363,4.004-16.675,12.012-21.935c7.161-4.745,16.568-7.12,28.223-7.12c8.853,0,16.959,1.367,24.316,4.102
		c1.758,0.652,3.059,1.206,3.906,1.66l-3.516,17.139c-3.125-2.996-8.594-5.131-16.406-6.405c-2.475-0.448-5.014-0.675-7.617-0.675
		c-6.901,0-12.143,1.074-15.723,3.223c-3.581,2.148-5.371,4.779-5.371,7.889c0,3.111,0.472,5.598,1.416,7.457
		c0.943,1.861,2.359,3.561,4.248,5.099c3.06,2.63,7.405,5.067,13.037,7.311c5.631,2.246,10.384,4.378,14.258,6.398
		c3.873,2.02,7.405,4.377,10.596,7.07c7.096,6.159,10.645,13.502,10.645,22.031c0,9.879-3.549,17.479-10.645,22.801
		c-6.836,5.26-16.374,7.889-28.613,7.889c-11.198,0-21.127-1.691-29.785-5.078c-2.475-0.91-4.362-1.855-5.664-2.832
		L-546.331,447.281z"/>
	<path class="st1" d="M-446.234,357.969h21.484v112.891h-21.484V357.969z"/>
</g>
<g>
	<path class="st1" d="M-931.781,322.834h20.996l55.469,148.633h-23.535l-73.438-37.598l-13.281,37.598h-23.047L-931.781,322.834z
		 M-897.015,417.658l-24.121-71.049l-25.391,71.049H-897.015z"/>
</g>
<rect x="-725.212" y="322.507" class="st0" width="21.24" height="21.241"/>
<rect x="-446.212" y="322.506" class="st0" width="21.24" height="21.241"/>
<g>
	<path class="st0" d="M-2562.002,474.067h-23.047l56.836-148.633h20.996l55.469,148.633h-23.535l-15.695-37.598 M-2493.447,420.259
		l-19.922-57.614l-4.199-13.434l-4.297,13.434l-21.094,57.614H-2493.447z"/>
	<path class="st1" d="M-2447.842,361.177h23.145l22.07,64.48l8.203,27.023l7.52-27.023l21.191-64.48h22.852l-42.773,114.453h-18.066
		L-2447.842,361.177z"/>
	<path class="st1" d="M-2322.158,361.177h21.484v112.891h-21.484V361.177z"/>
	<path class="st1" d="M-2264.639,361.177h19.141l0.098,13.125c8.138-5.413,17.383-9.316,27.734-11.709
		c4.297-0.943,8.789-1.416,13.477-1.416s9.049,0.7,13.086,2.098c4.036,1.399,7.389,3.822,10.059,7.27
		c5.013,6.57,7.52,17.986,7.52,34.247v69.276h-21.484v-69.361c0-9.757-1.303-16.488-3.906-20.195
		c-2.604-3.773-7.292-5.658-14.062-5.658c-7.357,0-15.072,2.292-23.145,6.875c-2.475,1.383-4.818,2.984-7.031,4.803v83.537h-21.484
		V361.177z"/>
	<path class="st1" d="M-2142.764,450.489c4.427,2.838,11.36,5.078,20.801,6.717c3.841,0.695,8.203,1.041,13.086,1.041
		s9.033-1.17,12.451-3.512c3.418-2.34,5.127-5.66,5.127-9.957c0-5.707-4.688-10.838-14.062-15.393
		c-2.734-1.347-6.006-2.822-9.814-4.426c-3.809-1.602-7.634-3.494-11.475-5.676c-12.436-7.247-18.652-16.932-18.652-29.053
		c0-9.363,4.004-16.676,12.012-21.936c7.161-4.745,16.568-7.119,28.223-7.119c8.854,0,16.959,1.367,24.316,4.102
		c1.758,0.651,3.06,1.205,3.906,1.66l-3.516,17.139c-3.125-2.997-8.594-5.131-16.406-6.406c-2.475-0.448-5.014-0.674-7.617-0.674
		c-6.901,0-12.143,1.074-15.723,3.223c-3.581,2.148-5.371,4.779-5.371,7.889c0,3.111,0.472,5.598,1.416,7.457
		c0.943,1.86,2.359,3.56,4.248,5.098c3.06,2.631,7.405,5.068,13.037,7.312c5.631,2.246,10.384,4.377,14.258,6.398
		c3.873,2.02,7.405,4.377,10.596,7.07c7.096,6.158,10.645,13.501,10.645,22.031c0,9.878-3.549,17.479-10.645,22.801
		c-6.836,5.26-16.374,7.889-28.613,7.889c-11.198,0-21.127-1.692-29.785-5.078c-2.475-0.911-4.362-1.855-5.664-2.832
		L-2142.764,450.489z"/>
	<path class="st1" d="M-2042.666,361.177h21.484v112.891h-21.484V361.177z"/>
</g>
<rect x="-2322.158" y="325.155" class="st0" width="21.24" height="21.24"/>
<rect x="-2043.158" y="325.154" class="st0" width="21.24" height="21.241"/>
<g>
	<path class="st0" d="M-3407.68,474.067h-23.047l56.836-148.633h20.996l55.469,148.633h-23.535l-15.695-37.598 M-3339.125,420.259
		l-19.922-57.614l-4.199-13.434l-4.297,13.434l-21.094,57.614H-3339.125z"/>
	<path class="st1" d="M-3293.52,361.177h23.145l22.07,64.48l8.203,27.023l7.52-27.023l21.191-64.48h22.852l-42.773,114.453h-18.066
		L-3293.52,361.177z"/>
	<path class="st1" d="M-3167.836,361.177h21.484v112.891h-21.484V361.177z"/>
	<path class="st1" d="M-3110.316,361.177h19.141l0.098,13.125c8.138-5.413,17.383-9.316,27.734-11.709
		c4.297-0.943,8.789-1.416,13.477-1.416s9.049,0.7,13.086,2.098c4.036,1.399,7.389,3.822,10.059,7.27
		c5.013,6.57,7.52,17.986,7.52,34.247v69.276h-21.484v-69.361c0-9.757-1.303-16.488-3.906-20.195
		c-2.604-3.773-7.292-5.658-14.062-5.658c-7.357,0-15.072,2.292-23.145,6.875c-2.475,1.383-4.818,2.984-7.031,4.803v83.537h-21.484
		V361.177z"/>
	<path class="st1" d="M-2988.441,450.489c4.427,2.838,11.36,5.078,20.801,6.717c3.841,0.695,8.203,1.041,13.086,1.041
		s9.033-1.17,12.451-3.512c3.418-2.34,5.127-5.66,5.127-9.957c0-5.707-4.688-10.838-14.062-15.393
		c-2.734-1.347-6.006-2.822-9.814-4.426c-3.809-1.602-7.634-3.494-11.475-5.676c-12.436-7.247-18.652-16.932-18.652-29.053
		c0-9.363,4.004-16.676,12.012-21.936c7.161-4.745,16.568-7.119,28.223-7.119c8.854,0,16.959,1.367,24.316,4.102
		c1.758,0.651,3.06,1.205,3.906,1.66l-3.516,17.139c-3.125-2.997-8.594-5.131-16.406-6.406c-2.475-0.448-5.014-0.674-7.617-0.674
		c-6.901,0-12.143,1.074-15.723,3.223c-3.581,2.148-5.371,4.779-5.371,7.889c0,3.111,0.472,5.598,1.416,7.457
		c0.943,1.86,2.359,3.56,4.248,5.098c3.06,2.631,7.405,5.068,13.037,7.312c5.631,2.246,10.384,4.377,14.258,6.398
		c3.873,2.02,7.405,4.377,10.596,7.07c7.096,6.158,10.645,13.501,10.645,22.031c0,9.878-3.549,17.479-10.645,22.801
		c-6.836,5.26-16.374,7.889-28.613,7.889c-11.198,0-21.127-1.692-29.785-5.078c-2.475-0.911-4.362-1.855-5.664-2.832
		L-2988.441,450.489z"/>
	<path class="st1" d="M-2888.344,361.177h21.484v112.891h-21.484V361.177z"/>
</g>
<rect x="-3167.836" y="325.156" transform="matrix(-0.7071 -0.7071 0.7071 -0.7071 -5627.1606 -1659.2505)" class="st0" width="21.24" height="21.24"/>
<rect x="-2888.837" y="325.155" transform="matrix(-0.7071 -0.7071 0.7071 -0.7071 -5150.8755 -1461.9724)" class="st0" width="21.241" height="21.24"/>
<g>
	<path class="st0" d="M-1733.528,474.067h-23.047l56.836-148.633h20.996l55.469,148.633h-23.535l-15.695-37.598 M-1664.974,420.259
		l-19.922-57.614l-4.199-13.434l-4.297,13.434l-21.094,57.614H-1664.974z"/>
	<path class="st1" d="M-1619.368,361.177h23.145l22.07,64.48l8.203,27.023l7.52-27.023l21.191-64.48h22.852l-42.773,114.453h-18.066
		L-1619.368,361.177z"/>
	<path class="st1" d="M-1493.685,361.177h21.484v112.891h-21.484V361.177z"/>
	<path class="st1" d="M-1436.165,361.177h19.141l0.098,13.125c8.138-5.413,17.383-9.316,27.734-11.709
		c4.297-0.943,8.789-1.416,13.477-1.416s9.049,0.7,13.086,2.098c4.036,1.399,7.389,3.822,10.059,7.27
		c5.013,6.57,7.52,17.986,7.52,34.247v69.276h-21.484v-69.361c0-9.757-1.303-16.488-3.906-20.195
		c-2.604-3.773-7.292-5.658-14.062-5.658c-7.357,0-15.072,2.292-23.145,6.875c-2.475,1.383-4.818,2.984-7.031,4.803v83.537h-21.484
		V361.177z"/>
	<path class="st1" d="M-1314.29,450.489c4.427,2.838,11.36,5.078,20.801,6.717c3.841,0.695,8.203,1.041,13.086,1.041
		s9.033-1.17,12.451-3.512c3.418-2.34,5.127-5.66,5.127-9.957c0-5.707-4.688-10.838-14.062-15.393
		c-2.734-1.347-6.006-2.822-9.814-4.426c-3.809-1.602-7.634-3.494-11.475-5.676c-12.436-7.247-18.652-16.932-18.652-29.053
		c0-9.363,4.004-16.676,12.012-21.936c7.161-4.745,16.568-7.119,28.223-7.119c8.854,0,16.959,1.367,24.316,4.102
		c1.758,0.651,3.06,1.205,3.906,1.66l-3.516,17.139c-3.125-2.997-8.594-5.131-16.406-6.406c-2.475-0.448-5.014-0.674-7.617-0.674
		c-6.901,0-12.143,1.074-15.723,3.223c-3.581,2.148-5.371,4.779-5.371,7.889c0,3.111,0.472,5.598,1.416,7.457
		c0.943,1.86,2.359,3.56,4.248,5.098c3.06,2.631,7.405,5.068,13.037,7.312c5.631,2.246,10.384,4.377,14.258,6.398
		c3.873,2.02,7.405,4.377,10.596,7.07c7.096,6.158,10.645,13.501,10.645,22.031c0,9.878-3.549,17.479-10.645,22.801
		c-6.836,5.26-16.374,7.889-28.613,7.889c-11.198,0-21.127-1.692-29.785-5.078c-2.475-0.911-4.362-1.855-5.664-2.832
		L-1314.29,450.489z"/>
	<path class="st1" d="M-1214.192,361.177h21.484v112.891h-21.484V361.177z"/>
</g>
<rect x="-3488.91" y="-989.733" class="st2" width="3128.207" height="1508.484"/>
<g>
	<path class="st1" d="M1538.615-121.267l-7.114-23.311h-1.211c-8.074,10.193-16.196,17.131-24.37,20.812
		c-8.174,3.683-18.67,5.525-31.484,5.525c-16.449,0-29.289-4.439-38.523-13.32c-9.232-8.879-13.85-21.442-13.85-37.69
		c0-17.256,6.407-30.273,19.224-39.053c12.814-8.779,32.341-13.571,58.579-14.38l28.911-0.908v-8.931
		c0-10.695-2.497-18.694-7.493-23.991c-4.994-5.299-12.74-7.947-23.234-7.947c-8.578,0-16.802,1.263-24.673,3.784
		c-7.871,2.523-15.439,5.501-22.705,8.931l-11.504-25.43c9.082-4.742,19.021-8.349,29.819-10.822
		c10.797-2.472,20.988-3.709,30.576-3.709c21.291,0,37.361,4.643,48.211,13.926c10.846,9.285,16.271,23.866,16.271,43.745v112.769
		H1538.615z M1485.637-145.485c12.916,0,23.284-3.606,31.105-10.822c7.819-7.214,11.731-17.332,11.731-30.35v-14.531l-21.494,0.908
		c-16.752,0.605-28.938,3.406-36.556,8.4c-7.62,4.996-11.428,12.64-11.428,22.933c0,7.469,2.219,13.245,6.66,17.331
		C1470.096-147.528,1476.756-145.485,1485.637-145.485z"/>
	<path class="st1" d="M1649.265-121.267h-35.571v-167.412h35.571V-121.267z"/>
	<path class="st1" d="M1848.615-205.275c0,27.348-7.015,48.69-21.04,64.028c-14.027,15.34-33.554,23.008-58.579,23.008
		c-15.643,0-29.467-3.531-41.475-10.596c-12.01-7.062-21.243-17.204-27.7-30.425c-6.459-13.219-9.688-28.557-9.688-46.016
		c0-27.145,6.963-48.336,20.889-63.574c13.926-15.236,33.552-22.856,58.882-22.856c24.219,0,43.391,7.795,57.52,23.387
		C1841.551-252.73,1848.615-231.713,1848.615-205.275z M1726.765-205.275c0,38.65,14.278,57.974,42.837,57.974
		c28.254,0,42.383-19.323,42.383-57.974c0-38.244-14.229-57.368-42.686-57.368c-14.936,0-25.759,4.945-32.468,14.834
		C1730.118-237.919,1726.765-223.742,1726.765-205.275z"/>
</g>
<g>
	<path class="st1" d="M137.68,160.005c0,19.122-6.914,34.126-20.74,45.011c-13.827,10.885-32.9,16.327-57.219,16.327
		c-24.321,0-44.227-3.774-59.72-11.326v-33.243c9.805,4.61,20.225,8.237,31.258,10.885c11.031,2.647,21.303,3.972,30.816,3.972
		c13.923,0,24.197-2.647,30.815-7.943c6.62-5.295,9.929-12.404,9.929-21.328c0-8.04-3.041-14.856-9.12-20.446
		c-6.081-5.59-18.632-12.209-37.656-19.857c-19.614-7.943-33.44-17.013-41.48-27.213C6.521,84.645,2.5,72.387,2.5,58.068
		c0-17.945,6.374-32.066,19.122-42.362C34.37,5.409,51.483,0.261,72.959,0.261c20.593,0,41.087,4.512,61.485,13.533l-11.179,28.683
		c-19.122-8.04-36.185-12.062-51.189-12.062c-11.376,0-20.004,2.478-25.888,7.429c-5.884,4.953-8.826,11.498-8.826,19.637
		c0,5.59,1.177,10.37,3.53,14.341c2.354,3.973,6.226,7.723,11.62,11.254c5.393,3.529,15.101,8.188,29.125,13.974
		c15.787,6.57,27.359,12.7,34.714,18.387c7.354,5.688,12.747,12.111,16.18,19.269C135.963,141.864,137.68,150.297,137.68,160.005z"
		/>
	<path class="st1" d="M215.093,160.675l-21.645,61.455h-38.145L238.101-0.077h39.355l82.798,222.207h-38.447 M257.627,31.104
		c-2.725,12.412-31.939,98.389-31.939,98.389l94.482,60"/>
	<path class="st1" d="M389.468,222.13V0h36.177v222.13H389.468z"/>
	<path class="st1" d="M676.153,110.942c0,35.262-8.815,62.672-26.446,82.229c-17.632,19.558-42.596,29.336-74.896,29.336
		c-32.694,0-57.808-9.704-75.339-29.114c-17.534-19.408-26.299-46.989-26.299-82.747c0-35.755,8.816-63.214,26.446-82.377
		c17.632-19.161,42.793-28.743,75.488-28.743c32.199,0,57.091,9.729,74.673,29.188C667.361,48.173,676.153,75.582,676.153,110.942z
		 M510.807,110.942c0,26.669,5.383,46.892,16.15,60.672c10.765,13.778,26.718,20.668,47.855,20.668
		c21.039,0,36.915-6.815,47.635-20.446c10.715-13.631,16.074-33.929,16.074-60.894c0-26.569-5.31-46.72-15.928-60.45
		c-10.618-13.728-26.446-20.594-47.484-20.594c-21.237,0-37.263,6.866-48.078,20.594C516.214,64.223,510.807,84.373,510.807,110.942
		z"/>
</g>
<rect x="1613.693" y="-345.227" class="st0" width="35.571" height="35.572"/>
<path class="st1" d="M1395.963-181.359c0,19.678-7.114,35.117-21.343,46.318c-14.229,11.201-33.856,16.802-58.882,16.802
	c-25.027,0-45.512-3.884-61.455-11.655v-34.209c10.09,4.744,20.812,8.477,32.166,11.201c11.352,2.725,21.922,4.087,31.711,4.087
	c14.328,0,24.9-2.725,31.711-8.174c6.812-5.449,10.218-12.765,10.218-21.948c0-8.273-3.129-15.288-9.385-21.04
	c-6.258-5.752-19.174-12.564-38.75-20.434c-20.184-8.174-34.412-17.507-42.686-28.003c-8.275-10.494-12.412-23.107-12.412-37.842
	c0-18.467,6.559-32.998,19.678-43.594c13.117-10.596,30.728-15.894,52.827-15.894c21.191,0,42.281,4.643,63.271,13.926
	l-11.504,29.517c-19.678-8.273-37.236-12.412-52.676-12.412c-11.707,0-20.586,2.55-26.641,7.645
	c-6.055,5.097-9.082,11.832-9.082,20.207c0,5.752,1.211,10.672,3.633,14.758c2.422,4.088,6.407,7.947,11.958,11.58
	c5.549,3.633,15.539,8.427,29.971,14.38c16.246,6.762,28.154,13.069,35.723,18.921c7.568,5.854,13.117,12.464,16.65,19.829
	C1394.196-200.027,1395.963-191.35,1395.963-181.359z"/>
</svg>
